<?xml version="1.0" encoding="UTF-8" standalone="no"?>
<!-- Created with Inkscape (http://www.inkscape.org/) -->

<svg
   width="125.58109mm"
   height="9.6180172mm"
   viewBox="0 0 125.58109 9.6180172"
   version="1.1"
   id="svg1"
   xml:space="preserve"
   sodipodi:docname="logo-horizontal-claro-EDITABLE.svg"
   xmlns:inkscape="http://www.inkscape.org/namespaces/inkscape"
   xmlns:sodipodi="http://sodipodi.sourceforge.net/DTD/sodipodi-0.dtd"
   xmlns="http://www.w3.org/2000/svg"
   xmlns:svg="http://www.w3.org/2000/svg"><sodipodi:namedview
     id="namedview1"
     pagecolor="#ffffff"
     bordercolor="#000000"
     borderopacity="0.25"
     inkscape:showpageshadow="2"
     inkscape:pageopacity="0.0"
     inkscape:pagecheckerboard="0"
     inkscape:deskcolor="#d1d1d1"
     inkscape:document-units="mm"
     inkscape:zoom="1.3843855"
     inkscape:cx="562.34336"
     inkscape:cy="394.03764"
     inkscape:window-width="1920"
     inkscape:window-height="991"
     inkscape:window-x="-9"
     inkscape:window-y="1341"
     inkscape:window-maximized="1"
     inkscape:current-layer="layer1" /><defs
     id="defs1" /><g
     inkscape:label="Capa 1"
     inkscape:groupmode="layer"
     id="layer1"
     transform="translate(-92.162359,-100.191)"><path
       style="font-weight:bold;font-size:12.7px;font-family:Sans;-inkscape-font-specification:'Sans, Bold';text-align:center;text-anchor:middle;stroke-width:0.265"
       d="m 100.88741,105.00931 q 0,1.28985 -0.58911,2.31304 -0.589113,1.01699 -1.488283,1.56269 -0.675928,0.40928 -1.48208,0.57051 -0.806153,0.16123 -1.909961,0.16123 H 92.16236 v -9.23354 h 3.348633 q 1.128613,0 1.947168,0.19223 0.818555,0.18604 1.37666,0.53331 0.954981,0.58291 1.500679,1.57509 0.55191,0.98599 0.55191,2.32544 z m -2.461866,-0.0186 q 0,-0.91157 -0.334863,-1.5565 -0.328662,-0.65112 -1.047998,-1.01699 -0.365869,-0.17983 -0.750342,-0.24184 -0.378272,-0.0682 -1.147217,-0.0682 H 94.54361 v 5.7795 h 0.601514 q 0.849561,0 1.246436,-0.0744 0.396875,-0.0806 0.775146,-0.28525 0.651123,-0.37207 0.954981,-0.99219 0.303857,-0.62632 0.303857,-1.54409 z m 13.258106,0.0124 q 0,2.20762 -1.26504,3.50986 -1.26504,1.29605 -3.49746,1.29605 -2.22622,0 -3.49126,-1.29605 -1.26504,-1.30224 -1.26504,-3.50986 0,-2.22622 1.26504,-3.51606 1.26504,-1.29605 3.49126,-1.29605 2.22002,0 3.49126,1.29605 1.27124,1.28984 1.27124,3.51606 z m -3.1564,2.33784 q 0.34727,-0.42168 0.5147,-0.99218 0.16743,-0.57671 0.16743,-1.35186 0,-0.83096 -0.19223,-1.41387 -0.19224,-0.58291 -0.5023,-0.94258 -0.31626,-0.37207 -0.73174,-0.5395 -0.40928,-0.16743 -0.85576,-0.16743 -0.45268,0 -0.85576,0.16123 -0.39688,0.16123 -0.73174,0.5333 -0.31006,0.34727 -0.5085,0.96118 -0.19223,0.60772 -0.19223,1.41387 0,0.82476 0.18603,1.40767 0.19224,0.57671 0.5023,0.94258 0.31006,0.36586 0.72554,0.5395 0.41547,0.17363 0.87436,0.17363 0.45889,0 0.87437,-0.17363 0.41547,-0.17984 0.72553,-0.55191 z m 14.65337,2.27583 h -2.36885 v -6.18257 l -1.71152,4.01216 h -1.64331 l -1.71152,-4.01216 v 6.18257 h -2.24483 v -9.23354 h 2.76573 l 2.07739,4.63227 2.07119,-4.63227 h 2.76572 z m 11.33574,-4.61367 q 0,2.20762 -1.26504,3.50986 -1.26503,1.29605 -3.49746,1.29605 -2.22622,0 -3.49126,-1.29605 -1.26504,-1.30224 -1.26504,-3.50986 0,-2.22622 1.26504,-3.51606 1.26504,-1.29605 3.49126,-1.29605 2.22002,0 3.49126,1.29605 1.27124,1.28984 1.27124,3.51606 z m -3.15639,2.33784 q 0.34726,-0.42168 0.51469,-0.99218 0.16744,-0.57671 0.16744,-1.35186 0,-0.83096 -0.19224,-1.41387 -0.19224,-0.58291 -0.5023,-0.94258 -0.31626,-0.37207 -0.73173,-0.5395 -0.40928,-0.16743 -0.85577,-0.16743 -0.45268,0 -0.85576,0.16123 -0.39687,0.16123 -0.73174,0.5333 -0.31005,0.34727 -0.50849,0.96118 -0.19224,0.60772 -0.19224,1.41387 0,0.82476 0.18604,1.40767 0.19223,0.57671 0.50229,0.94258 0.31006,0.36586 0.72554,0.5395 0.41548,0.17363 0.87436,0.17363 0.45889,0 0.87437,-0.17363 0.41548,-0.17984 0.72554,-0.55191 z m 16.70595,-0.62632 q 0,1.36426 -1.15962,2.22002 -1.15342,0.84956 -3.13779,0.84956 -1.14722,0 -2.00298,-0.19843 -0.84956,-0.20464 -1.5937,-0.5147 v -2.21382 h 0.26045 q 0.73794,0.58911 1.64951,0.90537 0.91777,0.31626 1.76113,0.31626 0.21704,0 0.57051,-0.0372 0.35347,-0.0372 0.57671,-0.12403 0.27285,-0.11162 0.44648,-0.27905 0.17984,-0.16743 0.17984,-0.49609 0,-0.30386 -0.26045,-0.5209 -0.25425,-0.22325 -0.75034,-0.34107 -0.5209,-0.12402 -1.10381,-0.22944 -0.57671,-0.11162 -1.08521,-0.27905 -1.16582,-0.37827 -1.68051,-1.0232 -0.5085,-0.65112 -0.5085,-1.6123 0,-1.28985 1.15342,-2.1022 1.15962,-0.81855 2.97656,-0.81855 0.91157,0 1.79834,0.17983 0.89297,0.17363 1.54409,0.44028 v 2.12701 h -0.25425 q -0.5581,-0.44649 -1.37045,-0.74414 -0.80616,-0.30386 -1.64952,-0.30386 -0.29765,0 -0.59531,0.0434 -0.29145,0.0372 -0.56431,0.14882 -0.24184,0.093 -0.41547,0.28526 -0.17364,0.18603 -0.17364,0.42788 0,0.36587 0.27906,0.56431 0.27905,0.19223 1.0542,0.35346 0.50849,0.10542 0.97358,0.20464 0.47129,0.0992 1.01079,0.27285 1.0604,0.34727 1.5627,0.94878 0.50849,0.59531 0.50849,1.55029 z m 9.75445,-6.33139 -3.40445,5.66167 v 3.57187 h -2.38125 v -3.46025 l -3.46025,-5.77329 h 2.70371 l 1.99678,3.57187 1.92856,-3.57187 z m 8.62582,6.33139 q 0,1.36426 -1.15962,2.22002 -1.15341,0.84956 -3.13779,0.84956 -1.14722,0 -2.00298,-0.19843 -0.84956,-0.20464 -1.5937,-0.5147 v -2.21382 h 0.26045 q 0.73794,0.58911 1.64951,0.90537 0.91778,0.31626 1.76114,0.31626 0.21704,0 0.5705,-0.0372 0.35347,-0.0372 0.57671,-0.12403 0.27285,-0.11162 0.44649,-0.27905 0.17983,-0.16743 0.17983,-0.49609 0,-0.30386 -0.26045,-0.5209 -0.25425,-0.22325 -0.75034,-0.34107 -0.5209,-0.12402 -1.10381,-0.22944 -0.57671,-0.11162 -1.0852,-0.27905 -1.16582,-0.37827 -1.68052,-1.0232 -0.5085,-0.65112 -0.5085,-1.6123 0,-1.28985 1.15342,-2.1022 1.15962,-0.81855 2.97656,-0.81855 0.91158,0 1.79834,0.17983 0.89297,0.17363 1.54409,0.44028 v 2.12701 h -0.25424 q -0.55811,-0.44649 -1.37046,-0.74414 -0.80615,-0.30386 -1.64951,-0.30386 -0.29766,0 -0.59532,0.0434 -0.29145,0.0372 -0.5643,0.14882 -0.24185,0.093 -0.41548,0.28526 -0.17363,0.18603 -0.17363,0.42788 0,0.36587 0.27905,0.56431 0.27905,0.19223 1.0542,0.35346 0.50849,0.10542 0.97358,0.20464 0.47129,0.0992 1.01079,0.27285 1.0604,0.34727 1.5627,0.94878 0.50849,0.59531 0.50849,1.55029 z m 8.85528,-4.54545 h -2.88355 v 7.4476 h -2.38125 v -7.4476 h -2.88354 v -1.78594 h 8.14834 z m 8.11113,7.4476 h -6.67866 v -9.23354 h 6.67866 v 1.78594 h -4.30981 v 1.5937 h 3.99975 v 1.78593 h -3.99975 v 2.28204 h 4.30981 z m 11.67681,0 h -2.36885 v -6.18257 l -1.71152,4.01216 h -1.64332 l -1.71152,-4.01216 v 6.18257 h -2.24482 v -9.23354 h 2.76572 l 2.07739,4.63227 2.07119,-4.63227 h 2.76573 z m 9.74824,-2.90215 q 0,1.36426 -1.15962,2.22002 -1.15342,0.84956 -3.13779,0.84956 -1.14722,0 -2.00298,-0.19843 -0.84956,-0.20464 -1.5937,-0.5147 v -2.21382 h 0.26045 q 0.73794,0.58911 1.64951,0.90537 0.91777,0.31626 1.76113,0.31626 0.21704,0 0.57051,-0.0372 0.35347,-0.0372 0.57671,-0.12403 0.27285,-0.11162 0.44648,-0.27905 0.17984,-0.16743 0.17984,-0.49609 0,-0.30386 -0.26045,-0.5209 -0.25425,-0.22325 -0.75034,-0.34107 -0.5209,-0.12402 -1.10381,-0.22944 -0.57671,-0.11162 -1.08521,-0.27905 -1.16582,-0.37827 -1.68051,-1.0232 -0.5085,-0.65112 -0.5085,-1.6123 0,-1.28985 1.15342,-2.1022 1.15962,-0.81855 2.97656,-0.81855 0.91157,0 1.79834,0.17983 0.89297,0.17363 1.54409,0.44028 v 2.12701 h -0.25425 q -0.5581,-0.44649 -1.37046,-0.74414 -0.80615,-0.30386 -1.64951,-0.30386 -0.29765,0 -0.59531,0.0434 -0.29146,0.0372 -0.56431,0.14882 -0.24184,0.093 -0.41548,0.28526 -0.17363,0.18603 -0.17363,0.42788 0,0.36587 0.27905,0.56431 0.27906,0.19223 1.0542,0.35346 0.5085,0.10542 0.97359,0.20464 0.47129,0.0992 1.01079,0.27285 1.0604,0.34727 1.56269,0.94878 0.5085,0.59531 0.5085,1.55029 z"
       id="text1"
       aria-label="DOMO SYSTEMS" /><path
       style="fill:#000000;fill-opacity:1;stroke-width:0.0771763"
       d="m 208.27718,109.69638 c -0.0238,-0.034 -0.0289,-0.10701 -0.0289,-0.41813 0,-0.37545 1.5e-4,-0.37709 0.0455,-0.42243 l 0.0455,-0.0455 h 0.4274 0.4274 v -2.31009 -2.31008 l -0.16241,0.11237 c -0.1822,0.12605 -0.24983,0.1407 -0.32598,0.0706 -0.0249,-0.023 -0.13808,-0.1974 -0.25141,-0.38766 -0.22173,-0.37225 -0.23839,-0.4234 -0.16432,-0.50437 0.0229,-0.0251 0.37764,-0.27663 0.78821,-0.55898 l 0.74648,-0.51335 v -0.70462 -0.70463 l 0.0542,-0.0542 0.0542,-0.0542 h 0.52896 0.52896 l 0.052,0.0447 c 0.0516,0.0443 0.0521,0.0468 0.0613,0.31437 l 0.009,0.26967 0.89949,-0.62076 c 0.49472,-0.34142 0.91974,-0.62603 0.94449,-0.63248 0.0247,-0.007 0.0665,-0.004 0.0927,0.006 0.0674,0.0255 4.60102,3.15179 4.6518,3.20778 0.074,0.0816 0.0574,0.13249 -0.16432,0.50478 -0.11333,0.19026 -0.22647,0.3647 -0.25141,0.38766 -0.0753,0.0693 -0.14119,0.0549 -0.32444,-0.0706 l -0.16395,-0.1123 v 2.31001 2.31001 h 0.4274 0.42741 l 0.0455,0.0455 c 0.0454,0.0453 0.0455,0.047 0.0455,0.42244 0,0.31111 -0.005,0.3841 -0.0289,0.41812 l -0.0289,0.0412 h -4.69007 -4.69006 z m 8.18706,-3.31189 v -2.42581 l -1.72015,-1.18605 c -0.94608,-0.65233 -1.73309,-1.18557 -1.74891,-1.18498 -0.0158,6.2e-4 -0.8024,0.53451 -1.74797,1.18648 l -1.71922,1.18541 v 2.42538 2.42537 h 3.46813 3.46812 z m -3.64431,1.77052 c -0.17632,-0.0581 -0.29739,-0.15721 -0.38142,-0.3122 -0.0605,-0.11155 -0.0637,-0.1268 -0.0637,-0.30292 1e-5,-0.16504 0.005,-0.19577 0.0494,-0.27904 0.0664,-0.12582 0.18185,-0.23755 0.30919,-0.2992 0.0887,-0.0429 0.12964,-0.051 0.2627,-0.0516 0.13574,-5.8e-4 0.17223,0.006 0.26268,0.0508 0.12773,0.0627 0.24307,0.17461 0.3092,0.29995 0.0439,0.0833 0.0494,0.11399 0.0494,0.27904 0,0.16702 -0.005,0.1952 -0.0516,0.28346 -0.11268,0.21394 -0.30593,0.339 -0.54081,0.34999 -0.0756,0.004 -0.16218,-0.004 -0.20502,-0.0183 z m -0.83458,-1.29209 c -0.0838,-0.0263 -0.1867,-0.12003 -0.23016,-0.20981 -0.0797,-0.16467 -0.0353,-0.35686 0.11173,-0.48367 0.10344,-0.0892 0.4483,-0.25822 0.62532,-0.30648 0.45987,-0.12536 0.94594,-0.0729 1.37725,0.14865 0.31785,0.16327 0.42035,0.29227 0.40258,0.50664 -0.0103,0.12369 -0.0753,0.23012 -0.1851,0.30277 -0.10376,0.0687 -0.28309,0.0728 -0.39537,0.009 -0.18243,-0.10346 -0.37966,-0.18824 -0.48097,-0.20675 -0.3018,-0.0551 -0.58636,0.006 -0.8674,0.18632 -0.0968,0.0621 -0.25451,0.0856 -0.35787,0.0532 z m -0.70475,-0.8507 c -0.10897,-0.0498 -0.19183,-0.14435 -0.2243,-0.25603 -0.0553,-0.19012 0.007,-0.32942 0.21985,-0.4896 1.01836,-0.76736 2.42157,-0.76736 3.43993,0 0.21258,0.16018 0.27513,0.29948 0.21986,0.4896 -0.0669,0.23003 -0.32914,0.35399 -0.53959,0.25504 -0.0408,-0.0192 -0.12426,-0.0733 -0.18546,-0.12021 -0.31994,-0.24532 -0.79032,-0.40033 -1.21477,-0.40033 -0.42674,0 -0.89311,0.15369 -1.21477,0.40033 -0.2058,0.1578 -0.34622,0.19178 -0.50075,0.1212 z m -0.69126,-0.83913 c -0.0953,-0.0472 -0.17678,-0.1413 -0.2056,-0.2375 -0.0569,-0.18989 0.004,-0.33339 0.21282,-0.50182 0.89889,-0.72491 2.05558,-1.00442 3.18623,-0.76996 0.56573,0.11732 1.14868,0.3956 1.61289,0.76996 0.23179,0.18693 0.28641,0.35325 0.18298,0.55722 -0.0664,0.13102 -0.16535,0.20102 -0.30435,0.21537 -0.13584,0.014 -0.21084,-0.013 -0.35307,-0.12717 -0.5098,-0.40924 -1.04499,-0.62645 -1.68866,-0.68536 -0.70927,-0.0649 -1.47325,0.15976 -2.04992,0.60282 -0.0947,0.0727 -0.20702,0.15102 -0.24967,0.17397 -0.10109,0.0544 -0.23677,0.0554 -0.34365,0.002 z"
       id="path1" /></g></svg>
