<?xml version="1.0" encoding="UTF-8" standalone="no"?>
<!-- Created with Inkscape (http://www.inkscape.org/) -->

<svg
   width="22.52264mm"
   height="18.517248mm"
   viewBox="0 0 22.52264 18.517248"
   version="1.1"
   id="svg1"
   xml:space="preserve"
   sodipodi:docname="logo-horizontal-claro-EDITABLE.svg"
   xmlns:inkscape="http://www.inkscape.org/namespaces/inkscape"
   xmlns:sodipodi="http://sodipodi.sourceforge.net/DTD/sodipodi-0.dtd"
   xmlns="http://www.w3.org/2000/svg"
   xmlns:svg="http://www.w3.org/2000/svg"><sodipodi:namedview
     id="namedview1"
     pagecolor="#ffffff"
     bordercolor="#000000"
     borderopacity="0.25"
     inkscape:showpageshadow="2"
     inkscape:pageopacity="0.0"
     inkscape:pagecheckerboard="0"
     inkscape:deskcolor="#d1d1d1"
     inkscape:document-units="mm"
     inkscape:zoom="1.3843855"
     inkscape:cx="562.34336"
     inkscape:cy="394.03764"
     inkscape:window-width="1920"
     inkscape:window-height="991"
     inkscape:window-x="-9"
     inkscape:window-y="1341"
     inkscape:window-maximized="1"
     inkscape:current-layer="layer1" /><defs
     id="defs1" /><g
     inkscape:label="Capa 1"
     inkscape:groupmode="layer"
     id="layer1"
     transform="translate(-137.23869,-91.266955)"><path
       style="font-weight:bold;font-size:12.7px;font-family:Sans;-inkscape-font-specification:'Sans, Bold';text-align:center;text-anchor:middle;stroke-width:0.265"
       d="m 145.96373,105.00931 q 0,1.28985 -0.58911,2.31304 -0.58912,1.01699 -1.48829,1.56269 -0.67592,0.40928 -1.48208,0.57051 -0.80615,0.16123 -1.90996,0.16123 h -3.25561 v -9.23354 h 3.34863 q 1.12861,0 1.94717,0.19223 0.81855,0.18604 1.37666,0.53331 0.95498,0.58291 1.50068,1.57509 0.55191,0.98599 0.55191,2.32544 z m -2.46187,-0.0186 q 0,-0.91157 -0.33486,-1.5565 -0.32866,-0.65112 -1.048,-1.01699 -0.36587,-0.17983 -0.75034,-0.24184 -0.37827,-0.0682 -1.14722,-0.0682 h -0.60151 v 5.7795 h 0.60151 q 0.84956,0 1.24644,-0.0744 0.39687,-0.0806 0.77514,-0.28525 0.65113,-0.37207 0.95498,-0.99219 0.30386,-0.62632 0.30386,-1.54409 z m 6.55464,4.62607 h -2.31924 v -2.43706 h 2.31924 z m 9.70483,-2.90215 q 0,1.36426 -1.15961,2.22002 -1.15342,0.84956 -3.1378,0.84956 -1.14721,0 -2.00298,-0.19843 -0.84956,-0.20464 -1.5937,-0.5147 v -2.21382 h 0.26045 q 0.73794,0.58911 1.64951,0.90537 0.91778,0.31626 1.76114,0.31626 0.21704,0 0.5705,-0.0372 0.35347,-0.0372 0.57671,-0.12403 0.27285,-0.11162 0.44649,-0.27905 0.17983,-0.16743 0.17983,-0.49609 0,-0.30386 -0.26045,-0.5209 -0.25425,-0.22325 -0.75034,-0.34107 -0.5209,-0.12402 -1.10381,-0.22944 -0.57671,-0.11162 -1.0852,-0.27905 -1.16582,-0.37827 -1.68052,-1.0232 -0.5085,-0.65112 -0.5085,-1.6123 0,-1.28985 1.15342,-2.1022 1.15962,-0.81855 2.97656,-0.81855 0.91158,0 1.79834,0.17983 0.89297,0.17363 1.5441,0.44028 v 2.12701 h -0.25425 q -0.55811,-0.44649 -1.37046,-0.74414 -0.80615,-0.30386 -1.64951,-0.30386 -0.29766,0 -0.59532,0.0434 -0.29145,0.0372 -0.5643,0.14882 -0.24185,0.093 -0.41548,0.28526 -0.17363,0.18603 -0.17363,0.42788 0,0.36587 0.27905,0.56431 0.27905,0.19223 1.0542,0.35346 0.50849,0.10542 0.97358,0.20464 0.47129,0.0992 1.01079,0.27285 1.0604,0.34727 1.5627,0.94878 0.50849,0.59531 0.50849,1.55029 z"
       id="text1"
       aria-label="D.S" /><path
       style="fill:#000000;fill-opacity:1;stroke-width:0.0771763"
       d="m 143.78132,100.70049 c -0.0238,-0.034 -0.0289,-0.10701 -0.0289,-0.41813 0,-0.375447 1.5e-4,-0.377087 0.0455,-0.422427 l 0.0455,-0.0455 h 0.4274 0.4274 V 97.504355 95.19429 l -0.16241,0.112367 c -0.1822,0.12605 -0.24983,0.1407 -0.32598,0.0706 -0.0249,-0.023 -0.13808,-0.197397 -0.25141,-0.387657 -0.22173,-0.372247 -0.23839,-0.423397 -0.16432,-0.504367 0.0229,-0.0251 0.37764,-0.27663 0.78821,-0.558977 l 0.74648,-0.513347 v -0.704617 -0.704624 l 0.0542,-0.0542 0.0542,-0.0542 h 0.52896 0.52896 l 0.052,0.0447 c 0.0516,0.0443 0.0521,0.0468 0.0613,0.314367 l 0.009,0.26967 0.89949,-0.620757 c 0.49472,-0.34142 0.91974,-0.626027 0.94449,-0.632477 0.0247,-0.007 0.0665,-0.004 0.0927,0.006 0.0674,0.0255 4.60102,3.151772 4.6518,3.207762 0.074,0.0816 0.0574,0.13249 -0.16432,0.504777 -0.11333,0.19026 -0.22647,0.364697 -0.25141,0.387657 -0.0753,0.0693 -0.14119,0.0549 -0.32444,-0.0706 l -0.16395,-0.112297 v 2.309995 2.309998 h 0.4274 0.42741 l 0.0455,0.0455 c 0.0454,0.0453 0.0455,0.047 0.0455,0.422437 0,0.31111 -0.005,0.3841 -0.0289,0.41812 l -0.0289,0.0412 h -4.69007 -4.69006 z m 8.18706,-3.311875 V 94.96282 l -1.72015,-1.186044 c -0.94608,-0.652327 -1.73309,-1.185561 -1.74891,-1.184974 -0.0158,6.2e-4 -0.8024,0.534507 -1.74797,1.186474 l -1.71922,1.185404 v 2.425365 2.425358 h 3.46813 3.46812 z m -3.64431,1.770511 c -0.17632,-0.0581 -0.29739,-0.15721 -0.38142,-0.312197 -0.0605,-0.11155 -0.0637,-0.1268 -0.0637,-0.30292 1e-5,-0.165037 0.005,-0.195767 0.0494,-0.279037 0.0664,-0.12582 0.18185,-0.23755 0.30919,-0.2992 0.0887,-0.0429 0.12964,-0.051 0.2627,-0.0516 0.13574,-5.8e-4 0.17223,0.006 0.26268,0.0508 0.12773,0.0627 0.24307,0.17461 0.3092,0.29995 0.0439,0.0833 0.0494,0.11399 0.0494,0.279037 0,0.16702 -0.005,0.1952 -0.0516,0.28346 -0.11268,0.213937 -0.30593,0.338997 -0.54081,0.349987 -0.0756,0.004 -0.16218,-0.004 -0.20502,-0.0183 z m -0.83458,-1.292081 c -0.0838,-0.0263 -0.1867,-0.12003 -0.23016,-0.20981 -0.0797,-0.16467 -0.0353,-0.356857 0.11173,-0.483667 0.10344,-0.0892 0.4483,-0.25822 0.62532,-0.30648 0.45987,-0.125357 0.94594,-0.0729 1.37725,0.14865 0.31785,0.16327 0.42035,0.29227 0.40258,0.506637 -0.0103,0.12369 -0.0753,0.23012 -0.1851,0.30277 -0.10376,0.0687 -0.28309,0.0728 -0.39537,0.009 -0.18243,-0.10346 -0.37966,-0.18824 -0.48097,-0.20675 -0.3018,-0.0551 -0.58636,0.006 -0.8674,0.18632 -0.0968,0.0621 -0.25451,0.0856 -0.35787,0.0532 z m -0.70475,-0.850697 c -0.10897,-0.0498 -0.19183,-0.14435 -0.2243,-0.256027 -0.0553,-0.19012 0.007,-0.32942 0.21985,-0.489597 1.01836,-0.767357 2.42157,-0.767357 3.43993,0 0.21258,0.160177 0.27513,0.299477 0.21986,0.489597 -0.0669,0.230027 -0.32914,0.353987 -0.53959,0.255037 -0.0408,-0.0192 -0.12426,-0.0733 -0.18546,-0.12021 -0.31994,-0.245317 -0.79032,-0.400327 -1.21477,-0.400327 -0.42674,0 -0.89311,0.15369 -1.21477,0.400327 -0.2058,0.1578 -0.34622,0.19178 -0.50075,0.1212 z m -0.69126,-0.839124 c -0.0953,-0.0472 -0.17678,-0.1413 -0.2056,-0.2375 -0.0569,-0.189887 0.004,-0.333387 0.21282,-0.501817 0.89889,-0.724907 2.05558,-1.004414 3.18623,-0.769954 0.56573,0.117317 1.14868,0.395597 1.61289,0.769954 0.23179,0.18693 0.28641,0.353247 0.18298,0.557217 -0.0664,0.13102 -0.16535,0.20102 -0.30435,0.21537 -0.13584,0.014 -0.21084,-0.013 -0.35307,-0.12717 -0.5098,-0.409237 -1.04499,-0.626447 -1.68866,-0.685357 -0.70927,-0.0649 -1.47325,0.15976 -2.04992,0.602817 -0.0947,0.0727 -0.20702,0.15102 -0.24967,0.17397 -0.10109,0.0544 -0.23677,0.0554 -0.34365,0.002 z"
       id="path1" /></g></svg>
