<?xml version="1.0" encoding="UTF-8" standalone="no"?>
<!-- Created with Inkscape (http://www.inkscape.org/) -->

<svg
   width="297mm"
   height="210mm"
   viewBox="0 0 297 210"
   version="1.1"
   id="svg1"
   xml:space="preserve"
   inkscape:version="1.3.2 (091e20e, 2023-11-25, custom)"
   sodipodi:docname="logo-horizontal-claro-EDITABLE.svg"
   xmlns:inkscape="http://www.inkscape.org/namespaces/inkscape"
   xmlns:sodipodi="http://sodipodi.sourceforge.net/DTD/sodipodi-0.dtd"
   xmlns="http://www.w3.org/2000/svg"
   xmlns:svg="http://www.w3.org/2000/svg"><sodipodi:namedview
     id="namedview1"
     pagecolor="#000000"
     bordercolor="#000000"
     borderopacity="0.25"
     inkscape:showpageshadow="2"
     inkscape:pageopacity="0.0"
     inkscape:pagecheckerboard="0"
     inkscape:deskcolor="#d1d1d1"
     inkscape:document-units="mm"
     inkscape:zoom="1.3843855"
     inkscape:cx="562.34336"
     inkscape:cy="394.03764"
     inkscape:window-width="1920"
     inkscape:window-height="991"
     inkscape:window-x="-9"
     inkscape:window-y="1341"
     inkscape:window-maximized="1"
     inkscape:current-layer="layer1" /><defs
     id="defs1" /><g
     inkscape:label="Capa 1"
     inkscape:groupmode="layer"
     id="layer1"><text
       xml:space="preserve"
       style="font-weight:bold;font-size:12.7px;font-family:Sans;-inkscape-font-specification:'Sans, Bold';text-align:center;text-anchor:middle;fill:#ffffff;fill-opacity:1;stroke-width:0.264999"
       x="148.13724"
       y="109.61678"
       id="text1"><tspan
         sodipodi:role="line"
         id="tspan1"
         x="148.13724"
         y="109.61678"
         style="fill:#ffffff;fill-opacity:1;stroke-width:0.265">DOMO SYSTEMS</tspan></text><path
       style="fill:#ffffff;fill-opacity:1;stroke-width:0.0771763"
       d="m 208.27718,109.69638 c -0.0238,-0.034 -0.0289,-0.10701 -0.0289,-0.41813 0,-0.37545 1.5e-4,-0.37709 0.0455,-0.42243 l 0.0455,-0.0455 h 0.4274 0.4274 v -2.31009 -2.31008 l -0.16241,0.11237 c -0.1822,0.12605 -0.24983,0.1407 -0.32598,0.0706 -0.0249,-0.023 -0.13808,-0.1974 -0.25141,-0.38766 -0.22173,-0.37225 -0.23839,-0.4234 -0.16432,-0.50437 0.0229,-0.0251 0.37764,-0.27663 0.78821,-0.55898 l 0.74648,-0.51335 v -0.70462 -0.70463 l 0.0542,-0.0542 0.0542,-0.0542 h 0.52896 0.52896 l 0.052,0.0447 c 0.0516,0.0443 0.0521,0.0468 0.0613,0.31437 l 0.009,0.26967 0.89949,-0.62076 c 0.49472,-0.34142 0.91974,-0.62603 0.94449,-0.63248 0.0247,-0.007 0.0665,-0.004 0.0927,0.006 0.0674,0.0255 4.60102,3.15179 4.6518,3.20778 0.074,0.0816 0.0574,0.13249 -0.16432,0.50478 -0.11333,0.19026 -0.22647,0.3647 -0.25141,0.38766 -0.0753,0.0693 -0.14119,0.0549 -0.32444,-0.0706 l -0.16395,-0.1123 v 2.31001 2.31001 h 0.4274 0.42741 l 0.0455,0.0455 c 0.0454,0.0453 0.0455,0.047 0.0455,0.42244 0,0.31111 -0.005,0.3841 -0.0289,0.41812 l -0.0289,0.0412 h -4.69007 -4.69006 z m 8.18706,-3.31189 v -2.42581 l -1.72015,-1.18605 c -0.94608,-0.65233 -1.73309,-1.18557 -1.74891,-1.18498 -0.0158,6.2e-4 -0.8024,0.53451 -1.74797,1.18648 l -1.71922,1.18541 v 2.42538 2.42537 h 3.46813 3.46812 z m -3.64431,1.77052 c -0.17632,-0.0581 -0.29739,-0.15721 -0.38142,-0.3122 -0.0605,-0.11155 -0.0637,-0.1268 -0.0637,-0.30292 1e-5,-0.16504 0.005,-0.19577 0.0494,-0.27904 0.0664,-0.12582 0.18185,-0.23755 0.30919,-0.2992 0.0887,-0.0429 0.12964,-0.051 0.2627,-0.0516 0.13574,-5.8e-4 0.17223,0.006 0.26268,0.0508 0.12773,0.0627 0.24307,0.17461 0.3092,0.29995 0.0439,0.0833 0.0494,0.11399 0.0494,0.27904 0,0.16702 -0.005,0.1952 -0.0516,0.28346 -0.11268,0.21394 -0.30593,0.339 -0.54081,0.34999 -0.0756,0.004 -0.16218,-0.004 -0.20502,-0.0183 z m -0.83458,-1.29209 c -0.0838,-0.0263 -0.1867,-0.12003 -0.23016,-0.20981 -0.0797,-0.16467 -0.0353,-0.35686 0.11173,-0.48367 0.10344,-0.0892 0.4483,-0.25822 0.62532,-0.30648 0.45987,-0.12536 0.94594,-0.0729 1.37725,0.14865 0.31785,0.16327 0.42035,0.29227 0.40258,0.50664 -0.0103,0.12369 -0.0753,0.23012 -0.1851,0.30277 -0.10376,0.0687 -0.28309,0.0728 -0.39537,0.009 -0.18243,-0.10346 -0.37966,-0.18824 -0.48097,-0.20675 -0.3018,-0.0551 -0.58636,0.006 -0.8674,0.18632 -0.0968,0.0621 -0.25451,0.0856 -0.35787,0.0532 z m -0.70475,-0.8507 c -0.10897,-0.0498 -0.19183,-0.14435 -0.2243,-0.25603 -0.0553,-0.19012 0.007,-0.32942 0.21985,-0.4896 1.01836,-0.76736 2.42157,-0.76736 3.43993,0 0.21258,0.16018 0.27513,0.29948 0.21986,0.4896 -0.0669,0.23003 -0.32914,0.35399 -0.53959,0.25504 -0.0408,-0.0192 -0.12426,-0.0733 -0.18546,-0.12021 -0.31994,-0.24532 -0.79032,-0.40033 -1.21477,-0.40033 -0.42674,0 -0.89311,0.15369 -1.21477,0.40033 -0.2058,0.1578 -0.34622,0.19178 -0.50075,0.1212 z m -0.69126,-0.83913 c -0.0953,-0.0472 -0.17678,-0.1413 -0.2056,-0.2375 -0.0569,-0.18989 0.004,-0.33339 0.21282,-0.50182 0.89889,-0.72491 2.05558,-1.00442 3.18623,-0.76996 0.56573,0.11732 1.14868,0.3956 1.61289,0.76996 0.23179,0.18693 0.28641,0.35325 0.18298,0.55722 -0.0664,0.13102 -0.16535,0.20102 -0.30435,0.21537 -0.13584,0.014 -0.21084,-0.013 -0.35307,-0.12717 -0.5098,-0.40924 -1.04499,-0.62645 -1.68866,-0.68536 -0.70927,-0.0649 -1.47325,0.15976 -2.04992,0.60282 -0.0947,0.0727 -0.20702,0.15102 -0.24967,0.17397 -0.10109,0.0544 -0.23677,0.0554 -0.34365,0.002 z"
       id="path1" /></g></svg>
